/* XPM */
static char *result[] = {
/* columns rows colors chars-per-pixel */
"64 64 117 2 ",
"   c #006F01",
".  c #00650F",
"X  c #00690F",
"o  c #007305",
"O  c #00760A",
"+  c #007B0C",
"@  c #016B10",
"#  c #096E12",
"$  c #006E1D",
"%  c #007411",
"&  c #0C7314",
"*  c #007D14",
"=  c #00741B",
"-  c #007918",
";  c #147A17",
":  c #197F18",
">  c #005F26",
",  c #006423",
"<  c #006920",
"1  c #008213",
"2  c #0C8516",
"3  c #0C8A17",
"4  c #0E8C18",
"5  c #1C831A",
"6  c #128D1A",
"7  c #1E881B",
"8  c #15911B",
"9  c #1B951C",
"0  c #1F981D",
"q  c #258A1C",
"w  c #24931E",
"e  c #249B1F",
"r  c #1D9421",
"t  c #2D9320",
"y  c #259C20",
"u  c #2B9E25",
"i  c #2D9D29",
"p  c #339722",
"a  c #339B22",
"s  c #399E24",
"d  c #2DA122",
"f  c #33A624",
"g  c #3FA326",
"h  c #36A826",
"j  c #39AA26",
"k  c #33A22C",
"l  c #39A52F",
"z  c #3DAC29",
"x  c #3BA630",
"c  c #41A727",
"v  c #40A827",
"b  c #42A728",
"n  c #41AE28",
"m  c #4AAE2B",
"M  c #43B12A",
"N  c #4AB52C",
"B  c #4EB92D",
"V  c #51B52D",
"C  c #52BB2F",
"Z  c #45AD34",
"A  c #4AAF37",
"S  c #4CB335",
"D  c #4FB830",
"F  c #4CB038",
"G  c #54BC30",
"H  c #59BE30",
"J  c #57B93B",
"K  c #59B93D",
"L  c #57C030",
"P  c #5BC231",
"I  c #5EC03A",
"U  c #61C634",
"Y  c #66CA35",
"T  c #68CC36",
"R  c #67C73C",
"E  c #68C73E",
"W  c #66C839",
"Q  c #6CCD3A",
"!  c #70CF3C",
"~  c #72D13D",
"^  c #5EBC41",
"/  c #62BF42",
"(  c #67C145",
")  c #69C346",
"_  c #6FC64A",
"`  c #75D042",
"'  c #7CD544",
"]  c #7DD14D",
"[  c #7ECF50",
"{  c #81D947",
"}  c #85DA49",
"|  c #8BDD4D",
" . c #84D451",
".. c #89D755",
"X. c #87D850",
"o. c #8EDE51",
"O. c #91DF54",
"+. c #93DC5B",
"@. c #94E253",
"#. c #9AE557",
"$. c #9DE55A",
"%. c #A4EA5E",
"&. c #A8ED5F",
"*. c #9DE361",
"=. c #A5E962",
"-. c #ABEC65",
";. c #B1EF6A",
":. c #AFF064",
">. c #B2F266",
",. c #B5F36A",
"<. c #BCF66D",
"1. c #BFF86F",
"2. c #BEF771",
"3. c #C1FA6F",
"4. c #C4FA72",
"5. c #CAFE76",
"6. c #CFFF79",
/* pixels */
"1 1 1 1 1 1 1 1 1 1 1 1 1 1 1 1 1 1 1 1 1 1 1 1 1 1 1 1 1 1 1 1 1 1 1 1 1 1 1 1 1 1 1 1 1 1 1 1 1 1 1 1 1 1 1 1 1 1 1 1 1 1 1 1 ",
"1 1 1 1 1 1 1 1 1 1 1 1 + O o o o O 1 1 1 1 1 1 1 1 1 1 1 = = 1 1 1 1 1 1 1 1 - < < - 1 1 1 1 1 1 1 1 1 1 1 1 1 1 1 1 1 1 1 1 1 ",
"1 1 1 1 1 1 1 1 2 d 4 1 1 + O O O O 1 1 1 1 1 1 + 1 1 1 1 $ > = * 1 1 1 1 1 1 * = < * 1 1 1 1 1 * = 1 1 1 1 1 1 - = $ $ * 1 1 1 ",
"1 1 1 * - 1 1 1 3 L 0 1 1 1 1 1 1 1 1 1 1 1 1 k x l k 2 1 = , < 1 1 4 r 9 0 9 9 9 1 1 1 1 1 1 - < , * 1 1 1 1 1 $ , , < - 1 1 1 ",
"1 1 1 = , * 1 1 8 P 9 1 1 1 * * 1 1 1 1 2 4 i >.1.1.=.8 1 1 1 1 1 1 d P Y ! T Y P 8 1 1 1 1 1 < , , * 1 1 1 1 3 3 3 3 1 1 1 1 1 ",
"1 1 = < * 1 1 9 P U 0 1 1 1 , , < 1 1 1 d ` ,.4.| ~ W 3 1 1 1 1 1 1 2 y ! ,.@.U Y P 9 1 1 * , = * * 1 1 1 1 3 V P P B 3 1 1 1 1 ",
"1 1 - = 1 1 1 u | Q 9 1 - $ > $ - 1 1 e N ~ @.#.D f d 2 1 1 * = 1 1 * 4 n <.,.| Y Y 9 * 1 1 = * 1 1 1 1 9 f j U T T U j f 9 1 1 ",
"1 1 1 1 1 1 1 x <.~ 9 * - $ , - 1 1 9 G T Y Y U 9 1 1 1 1 * < , * 1 1 1 6 #.3.:.Y Y f 4 1 1 1 1 1 1 1 8 M W Y Y Y Y Y Y Y f 1 1 ",
"1 1 1 1 1 1 1 Z <.! 9 1 1 1 1 1 1 3 P Y Y U P P 9 1 1 1 * $ , , * 1 1 1 3 B o.&.Y Y Y f 1 1 1 1 1 1 1 N Y Y Y T Y Y Y ! ~ z 2 1 ",
"1 1 1 1 1 1 d ' <.! 0 1 1 1 1 1 1 3 P U Y B 4 3 1 1 1 1 < > , * 1 1 1 1 1 2 z ~ Y Y T f 1 1 1 1 1 1 1 N T Y Y Y Y Y ! ,.4.o.M 1 ",
"1 1 1 1 1 1 J <.1.~ B B f 1 1 1 1 4 P Y Y N 1 1 1 1 * < , , - 1 1 1 1 1 1 1 3 f Y Y Y P f 1 1 1 1 3 M U Y Y Y Y Y | ,.5.5.1.] 1 ",
"1 1 1 1 1 * ( 3.@.Q Y Y B 1 1 1 1 4 P Y Y B 1 1 1 1 * = = - 1 1 1 1 1 1 1 1 1 9 Y Y Y T B 1 1 1 1 3 P Y Y Y T Y M S ( ( ,.*.S 1 ",
"1 1 * - 1 8 E #.Y Y Y T N 1 1 1 1 3 P Y Y B w 9 3 1 1 1 1 1 1 1 1 1 1 1 1 1 1 8 N Y Y T N 1 1 1 3 e P Y Y P B N 6 1 1 1 ) F * 1 ",
"1 1 $ $ 3 P Y T Y Y Y T N 1 1 1 1 3 P U Y Y Y Q r 1 1 1 1 2 6 8 4 4 4 4 3 1 1 1 3 P Y T N 1 1 3 e U Y Y U z 1 1 1 1 1 1 1 1 1 1 ",
"1 1 $ , 4 P Y Y Y Y Y Y N 1 1 1 1 4 P T Y Y ! >.k 1 1 1 1 u ` =.W P P P V 3 1 1 3 P Y T N 1 1 z P Y Y Y j 3 1 1 1 1 1 1 1 1 1 1 ",
"1 $ , , 1 9 M Y Y Y Y Y N 1 1 1 1 3 P T U ' >.5.l 1 1 1 1 f } 5.>.-.| Y Y B y 1 1 9 C Y N 1 2 N T Y Y f 3 1 1 1 1 1 1 1 1 1 1 1 ",
"* , > $ 1 * f Y Y Y Y Y C 0 1 1 1 3 P Y Y ~ >.+.u 1 1 1 1 e I $.4.6.#.Y Y Q f 1 1 1 N Q B 1 1 N T Y Y 0 * 1 1 * 1 1 1 1 1 1 1 1 ",
"1 $ = 1 1 1 f T Y Y Y Y U P 3 1 1 3 P Y Y Y P 8 1 1 1 1 1 1 1 9 $.<.| U Y U j 2 * 1 n H z 1 4 N T Y P 9 1 2 9 8 4 2 1 1 1 + 1 1 ",
"1 * 1 1 1 1 f Y Y Y Y Y Y P 4 1 1 3 P Y Y Y P 3 * 1 1 1 1 1 1 1 6 r M U Y Y U c @ @ # & & 3 V Y Y P 8 1 * k -.;.` d 1 1 o o o 1 ",
"1 1 1 1 1 1 3 f Y Y Y Y Y P 3 1 8 B U Y Y C 9 1 = = 1 1 o o O 1 1 * 4 f U Y T m . . . . . O 5 V Y P 4 1 1 4 F <.<.] z 3 + o o o ",
"1 1 1 1 1 1 1 3 f U Y Y U P 3 * 0 Y Y Y C e 1 1 , $ 1 1 + o o + 1 1 1 9 Y T N q . . . . . . . m P d 2 1 1 1 3 ^ ,.$.P j 4 + O O ",
"1 * 9 k 9 1 1 1 3 M U Y Y P 2 * 0 Y Y Y f 1 1 1 $ - 1 1 1 O o O * 1 1 8 N m q . . @ . @ % X @ a f 1 1 1 1 1 1 1 ] | Y Y 0 1 1 1 ",
"1 6 ) &.H 3 1 1 1 1 n U Y V & - 9 C H P d + 1 1 1 1 1 1 1 1 1 1 1 1 1 1 1 @ X . . X @ % 1 * @ @ O 1 1 1 1 * 1 1 M U Y Y 0 1 1 1 ",
"1 [ @.! P 3 1 1 1 1 2 j N & . . @ & & 2 3 1 1 1 1 1 1 1 1 1 1 1 1 1 1 1 1 1 % . X * * * 1 1 1 + 1 1 1 1 = , 1 1 3 j Y U 0 1 1 1 ",
"2 ..4.#.P 3 1 1 1 1 1 2 ; . . . . . . * 1 1 1 < - 1 1 < , = 1 1 1 1 1 1 1 1 1 * * * 1 1 1 1 1 * 8 z 2 1 = , 1 1 1 f T Y 7 % 1 1 ",
"2 +.,.| P 3 1 1 1 1 1 * % O % % % % O * 1 * $ > - 1 * = , < 1 1 1 1 1 1 1 = $ $ = * 1 1 1 1 d f M P 3 1 $ , 1 1 + 7 p p & % 1 1 ",
"1 ..@.Y P 9 1 1 1 1 + 1 1 1 1 1 1 1 * 1 1 - , , - 1 1 1 < = 1 1 1 1 1 1 * , , > $ - 1 1 2 y W Q U P 3 1 $ , 1 1 X . . . . % 1 1 ",
"1 D Q Y T P d 1 1 1 o   o 1 1 1 1 1 1 1 1 * * * 1 1 1 1 1 1 1 1 1 1 1 1 1 * * * * 1 1 1 k -.<.{ Y P 3 1 $ $ 1 1 O . . . @ % 1 1 ",
"1 8 M Y Y T f 1 1 1 * + 1 1 1 1 * 1 1 1 * 1 1 1 1 1 1 1 1 1 1 3 z B e 1 1 1 1 1 1 1 1 1 l 5.5.} Y P 3 1 * * 1 1 * * + * - * 1 1 ",
"1 1 8 M Y Y B e 1 1 1 1 1 1 d J J f f f 9 1 1 1 = $ = < * 1 1 4 P T B f d 1 1 1 1 1 1 * l 3.%.~ P d 3 1 1 1 1 d f 9 * 1 = - 1 1 ",
"1 1 1 9 Y T T C 9 1 - * 3 d ' <.<.} } ~ n 0 9 1 = , , , = 1 1 3 M P Y ! ` Z 9 1 1 1 1 1 f %.Q Y N 1 1 1 1 3 e P C e 1 - , = 1 1 ",
"1 1 1 9 P U Y Y P 3 < $ 9 P =.;.;.,.4.{ U U P 8 1 1 * , = 1 1 1 1 B Y { <.5._ 4 1 1 1 1 e Y Y P n 1 1 1 1 w U U e 1 - , > = 1 1 ",
"1 o + 1 9 P Y Y P 3 , $ 1 4 9 6 8 i ;.{ Y Y Y P 9 1 1 * 1 1 1 1 1 N U T ' 1.3.] 1 1 1 d U U Y e 2 1 1 1 1 e T Y 9 * * , = 1 1 1 ",
"1 o o O 3 P T Y P 3 , = 1 1 * 1 1 2 k P Y Y Y Y V e 1 1 1 1 1 1 1 8 M T Q { | H 1 1 1 f T T Y 9 1 1 1 * A +.%.Q 9 1 1 - * 1 1 1 ",
"1 + o O 3 P Y Y P 3 = - 1 1 1 1 1 1 1 e f M Y Y T B u 2 = < $ = 1 1 9 f j P Y H e 2 1 f Q U j 3 1 1 1 Z $.4.o.n 4 1 1 1 1 1 1 1 ",
"1 1 1 1 3 P T T P 3 1 1 1 1 1 1 1 1 1 1 1 8 B Y Y T P 4 = < , , * 1 1 * 3 M L Y U e 2 w m v 2 + * * 9 | >.#.P 3 1 1 1 1 1 1 * 1 ",
"1 1 1 1 3 P U H B 2 1 1 1 1 1 * * * * 1 1 1 4 B Y Y P 8 1 1 - , * 1 1 1 1 1 f T T U 5 . X X . . . & H T T T P 3 1 1 1 3 1 O o 1 ",
"1 1 1 * & P s & & @ * 1 1 1 1 $ , > , = 1 1 1 3 B Y Y P 9 1 * * 1 1 1 1 1 1 f T T U 5 . . . . . . # H Y Y T P 4 1 1 3 B 9 o o 1 ",
"1 1 1 + % p 5 X . % * 1 1 1 1 - = < , = 1 1 1 1 N Y Y Y 9 6 f f f 3 1 1 1 1 9 M U U q . . . . . & s U Y B f d 1 1 1 3 L 0 + + 1 ",
"1 - 1 1 * X X X @ 1 1 + 1 + 1 1 1 1 < - 1 1 1 1 N Y Y Y f n Q } { j 3 1 1 1 1 6 m m ; X X . . ; p T Y T f * 1 1 1 4 y P 0 1 1 1 ",
"1 < $ 1 * @ % 1 1 1 1 O o o 1 1 1 1 1 1 1 1 1 1 N T Y Y Q ! | 5.4.` u 1 1 1 1 * @ X . % * . . g P U P P d 1 1 1 1 j Q Y y 2 1 1 ",
"1 < = 1 1 * 1 1 1 1 1 1 1 + 1 1 1 1 1 1 1 1 1 1 N T Y T %.<.2.4.4.Z 1 1 1 1 1 1 - X X % * . . # q P 8 4 2 1 1 1 * R <.! P d 1 1 ",
"1 , = 1 1 1 e B n 3 1 1 1 3 z N f 1 1 1 1 1 1 1 6 M T Y ' I l x l 4 1 1 1 1 = < 1 * * * 1 * X . & 9 1 1 1 1 1 1 ( ,.1.~ Y f 1 1 ",
"1 = = 1 3 K E T P 3 1 1 1 2 d P E ( / r 1 1 1 % O a T T Y a O % + 1 - $ $ 1 = , $ 1 1 1 1 1 % % + 1 1 1 1 1 1 1 +.,.O.T T f 1 1 ",
"1 1 4 y A 2.o.N n 3 1 1 1 1 1 f W >.5.l 1 1 1 X . q N Y T s . X 1 * , , < * = , $ = = * 1 1 1 1 1 1 1 1 1 1 2 9 | | Y U C e 1 1 ",
"1 1 j | 4.4.K 1 1 1 1 1 1 1 1 1 9 ! <.A 2 1 * @ . X & H U w . @ * < , < 1 1 1 1 - $ > = 1 1 1 * * 1 1 1 * * 2 B U U P H 0 1 1 1 ",
"1 * ^ 4.1.' j 1 1 1 1 1 1 1 1 1 9 ! <.<.K 1 1 1 X X & C q . X 1 1 1 * 1 1 1 1 1 * * * 1 1 1 1 < , , * 1 % @ @ # N j 3 3 1 1 1 1 ",
"1 1 ( <.{ T P f 1 1 1 1 1 1 1 1 9 T { <.( * 1 1 * X X : # # * 1 1 1 1 * 6  .F * 1 1 1 1 1 1 1 * < , , - % . . . ; 2 1 1 1 = $ 1 ",
"1 + ( >.Y Y Q C 9 1 1 1 1 1 1 1 9 Y Y #.K 1 1 1 1 + @ . @ % 1 1 1 1 4 0 u %.J 1 1 1 1 1 1 1 1 1 * , , = % @ % @ @ % 1 1 1 $ , 1 ",
"1 1 / &.Y Y Y Y P 9 1 1 1 1 1 3 y Y Y T f 1 1 1 * * * @ * 1 1 1 1 3 j Y U U d 1 1 3 4 4 3 1 1 1 1 * , = 1 1 1 1 1 1 1 1 1 = , 1 ",
"1 1 j ~ Y Y Y Y U P 9 1 1 1 1 M U Y Y Y f * 1 1 < , , * 1 1 1 1 1 M U Y P 9 2 1 3 B P P M 1 1 1 1 1 1 1 1 1 1 1 1 2 1 1 1 $ < 1 ",
"1 1 f Y Y Y Y Y Y Y C e 1 1 1 N T Y Y T f 1 1 1 , < - 1 1 1 1 4  .~ Y V 9 1 1 1 4 P $.>.O.B N B h 1 1 1 1 1 1 1 ( +...D 8 * * 1 ",
"1 1 9 M U U Y Y Y Y Q a O % % N Y Y Y Y f 1 1 1 = - 1 1 1 1 r ) @.~ T N 1 1 1 1 3 d J *.>.T T T N 1 1 1 1 1 4 ^ ,.<.@.Q r 1 1 1 ",
"1 1 1 6 C U Y Y Y Y Y b ; X : V Y Y Y T f 1 1 1 1 1 1 1 1 1 k %.Q Y T N 1 1 1 1 1 1 1 A X.Y Y Y G 9 1 1 1 3 d $.:.| P B 8 1 1 1 ",
"1 1 1 1 4 P U Y Y Y Y Y b & H Y Y Y Y U u * 1 1 1 2 3 3 4 3 y Y Y Y U n 1 1 1 1 1 1 1 1 9 L Y Y Y L 2 * 1 e Y Y T Y B 4 1 1 1 1 ",
"1 1 1 1 4 P Y Y Y Y Y Q b & H Y Y Y Y u $ , , * 1 d P P P P P Y Y Y j 2 1 1 1 1 1 1 1 1 2 8 P Y Y P & @ t U Y Y Y j 3 1 1 1 1 1 ",
"1 1 1 1 1 8 M T Y Y p 5 ; # : : p P y 2 * = - 1 1 K >.>.' Y Y Y Y Y f 1 1 1 = $ 1 1 1 1 1 4 P T T H # . a Y Y Y f 3 1 1 1 1 1 1 ",
"1 1 1 1 1 1 9 f f f & . . . . X 2 d 2 1 1 1 1 1 1 k ) ( W Y Y Y Y Y B e 1 1 = $ $ 1 1 1 1 2 d f f t # q N Y Y Y 9 1 1 1 1 1 1 1 ",
"1 1 1 1 1 1 * 1 1 1 O X X X X * 1 1 1 1 1 1 1 1 1 1 + 1 n U Y Y P U T B 3 1 1 - , - 1 1 1 1 1 * % . . b Y Y Y L 9 1 1 1 * * 1 1 ",
"1 1 1 1 1 1 1 * 1 1 * * + * 1 1 = , * , = 1 1 1 1 1 1 1 2 j Y H 5 m Y U B 3 1 - , * 1 1 1 1 1 % @ . . # s W P 8 1 1 1 1 < , < 1 ",
"1 1 - , $ - = $ 1 1 + + 1 1 1 1 1 = < = * 1 1 o o + 1 1 1 4 9 9 @ ; 5 5 5 # % - , * 1 1 + o o + * * . . p T P 3 1 1 1 , , < * 1 ",
"1 1 - $ > $ , $ 1 1 o o + 1 1 1 1 1 = * 1 1 1 + o + 1 1 1 1 1 1 % X . . . O * = , * 1 1 + o o * 1 * % O 7 p d 2 1 1 1 = < - 1 1 ",
"1 1 * - $ , $ $ 1 1 O o + 1 1 1 1 1 1 1 1 1 1 1 1 1 1 1 1 1 1 1 1 % @ @ % 1 1 * $ * 1 1 1 o 1 1 1 1 * 1 - O 1 1 1 1 1 1 1 1 1 1 ",
"1 1 1 1 1 * * 1 1 1 1 1 1 1 1 1 1 1 1 1 1 1 1 1 1 1 1 1 1 1 1 1 1 1 1 1 * 1 1 1 1 1 1 1 1 1 1 1 1 1 1 1 1 1 1 1 1 1 1 1 1 1 1 1 "
};
