/* XPM */
static char *e4a4a1abc0e6420ab95553076792749640aCGDxmK6tddfnf[] = {
/* columns rows colors chars-per-pixel */
"64 64 113 2 ",
"   c #271A15",
".  c #2C1B17",
"X  c #2E1C18",
"o  c #331E1B",
"O  c #391F1F",
"+  c #36211A",
"@  c #3C251D",
"#  c #3D291F",
"$  c #371E20",
"%  c #391F21",
"&  c #3C2021",
"*  c #40261E",
"=  c #42281F",
"-  c #422322",
";  c #482724",
":  c #432922",
">  c #4A2A25",
",  c #562A26",
"<  c #5B2D27",
"1  c #522F28",
"2  c #5D2D28",
"3  c #57362C",
"4  c #5C392F",
"5  c #64312A",
"6  c #6C352D",
"7  c #6E392E",
"8  c #71382E",
"9  c #763C30",
"0  c #7C3F32",
"q  c #7D4032",
"w  c #864535",
"e  c #864635",
"r  c #854534",
"t  c #834334",
"y  c #884735",
"u  c #884736",
"i  c #894736",
"p  c #894736",
"a  c #874935",
"s  c #874836",
"d  c #894836",
"f  c #8A4836",
"g  c #8B4836",
"h  c #8B4936",
"j  c #8B4937",
"k  c #8C4937",
"l  c #8C4A37",
"z  c #8D4A37",
"x  c #8A4836",
"c  c #8B4B38",
"v  c #8D4B38",
"b  c #8E4B38",
"n  c #8F4B38",
"m  c #8E4B38",
"M  c #904C38",
"N  c #904D38",
"B  c #914D39",
"V  c #924D39",
"C  c #924E39",
"Z  c #924D39",
"A  c #95503A",
"S  c #96503A",
"D  c #96513A",
"F  c #97513B",
"G  c #91543A",
"H  c #92553A",
"J  c #93553A",
"K  c #94553C",
"L  c #95563C",
"P  c #96513A",
"I  c #99533C",
"U  c #98573C",
"Y  c #99583D",
"T  c #9A593D",
"R  c #9C593E",
"E  c #9D5A3E",
"W  c #9E5A3E",
"Q  c #9C5A3E",
"!  c #A05C3F",
"~  c #A15C3F",
"^  c #A55E41",
"/  c #A55F41",
"(  c #A55E41",
")  c #A56041",
"_  c #A66041",
"`  c #A76041",
"'  c #A76141",
"]  c #A66041",
"[  c #A96143",
"{  c #AD6243",
"}  c #AD6244",
"|  c #AF6344",
" . c #AB6544",
".. c #AB6545",
"X. c #AC6545",
"o. c #AA6243",
"O. c #B16A47",
"+. c #B96C49",
"@. c #BB6E4A",
"#. c #BB6F4C",
"$. c #B0744F",
"%. c #BC704C",
"&. c #BC704C",
"*. c #B67752",
"=. c #B77852",
"-. c #B77852",
";. c #B87B54",
":. c #BC7A55",
">. c #BC7B55",
",. c #BE7D57",
"<. c #C2744E",
"1. c #CD865B",
"2. c #CD865C",
/* pixels */
"@ @ @ @ @ @ @ @ @ @ @ @ @ @ @ @ @ @ @ @ @ .     . @ @ @ @ @ @ @ @ @ @ @ @ @ @ @ @ @ @ @ @ @ @ @ @ @ @ X @ @ @ @ @ @ @ @ @ @ @ @ ",
") ) ) ) / / _ _ _ _ ) ) _ _ _ _ / / / | -.3 . . < T _ _ / / _ _ ) ) ) ) _ _ _ _ ) / _ _ _ _ ) ) _  .$.> G { ) ) ) ) ) ) _ _ ) ) ",
"C C C C C C C C N N N C C N N N C C C F &.>.3 o < h C C C C C N N N N C N N C N C C C N N N N C C U  .= 5 h C N N N C C C N N N ",
"p f f f f p p f f f h f h f f f h p p h K %.-.: < r f f f f p f f f f f h f f f f f f f f f h f a C ' = < r h f f f f f f f f f ",
"f f f f f f f f f f f f f f f f h p h p p F X.* < r f f f f f f f f p p f f f f f f f f f f f f f C ) * < r f f f f f f f f f f ",
"f f f f f f f f f f f f f f f f p h p h f C ) * < r f f f f f f f f f r r r f f f f f f f f f f f C ) * < r f f f f f f f f f f ",
"f f f f f f f f f f f f f r f f h p h p f C / @ < r f f f f f f f r t 6 5 6 r f f f f f f f f f f C / * < r f f f f f f f f f f ",
"f f f f f f f f f f f f r 6 r h p h p g p C { * < a f f r r r r q 6 6 r r r f f f f f f f f f f f C ) * < r f f f f f f f f f f ",
"g g c u g g g g f f f f r 6 q r p p g p h C ( * , t r t 6 6 5 6 6 q r f f f f f f f f f f f f f p C ( * < r g p f f f f f f f f ",
"u u g g u g t g f f f f r 0 5 2 2 t p h t C / @ @ 2 6 6 0 r r r t 6 t f f f f f f f f f f f f f p C { * < r p g f r f f f f f f ",
"g g u g g t 8 t r f f t 5 2 - @ - 5 t t 8 n ( @ - 0 r r p p f f p t 6 r f f f f f f f f f f f f p C ) * < r g g r 6 r f f f f f ",
"c u g g g g t 6 6 t t 2 - %     O < 0 8 t p T @ < r h f f f f f p r 6 r f f f f f f f f f f f f p C / * , t w p r 6 r f f f f f ",
"p f f f g g g t 0 5 2 - $ X     . % 2 0 r 2 : o < t g g h p h f y f f f f f h h f f y y h h f f r f T @ % 2 5 0 6 r f f f f f f ",
"t r r r t t t t 5 - % % $         . - < < &   . < 0 r t r r r r r r r r r r r r r r r r r r r q 5 < ;     $ - 2 q r r r r r r r ",
"< < < 2 2 2 2 2 % % % % % %           % O       O < < < < < < < < < < < < < < < < < < < < < < < & $           @ , < < < < < < < ",
". X . . X o % > > > - - % % % X     o @ @ @ @ o @ * * * * * * * * * = X . . X * * * = * * * * * @ @ @ @ @ @ @ @ @ * * * * * * @ ",
"            O D { ~ h r 5 , % % % & 5 R / ( ~ r ^ ) ) / / ) / / ) ..-.3 .   + K { ( ) / { ( ( / / / / ) / ( ` ~ { _ / ( { / ) ) ",
"& & % % % . X 5 h S | | t < - - 2 5 t C C C f 8 c C C C C C C C C D &.:.4 : + 5 f C C C C C C C C C C C C C S M C N C C N N C C ",
"< < < , - o X < r g M g 6 2 2 2 0 r g p f t 6 t f f f f p f f f p f D #.2.;.= < r f f f p p p h h p p p p h p h p f f f h p g p ",
"2 2 2 2 , @ o < r p g p 0 6 t t 8 t p h f t 6 t f f f f p f f f f f f D #.O.* < r f f f f p h p p h p h h p h p f f f f p h p g ",
"2 2 2 2 2 % o < r p g w 8 t g g r f f f r 6 q p f f f f f f f f f f f f D _ @ < r f f r t p p h h p p p f f p h h p h p h p h p ",
"2 2 2 2 , % o < r g p p w w g g f f f f t 6 t f f f f f f f f f f f f f n { * < r f r 6 6 t h p p h p t r p r p p h p h p h p h ",
"2 2 2 2 , O . < r g g g p p g g f f f r 6 0 6 t f f f f f f f f f f f f C ) * < r f f r t 6 t p h h t 6 6 0 8 p h p h p h p h p ",
"2 2 2 < < O o < r g g g p p g g f f p q 6 t 6 r f f f f f f f f f f r p N _ * < r f f f p t 6 t p t 8 t t 6 0 p p h p h p h p h ",
"2 2 2 2 , O X 2 t g g g g g w g f f r 8 t p r f f f f f f f f f f r 8 t C ^ @ < r f f f f r 6 t r 6 t f f t 6 t h p p h p h p h ",
"2 2 2 2 2 & X 2 t g g g g g g g f f p r f f f f f f f f f f f f p c t 6 r ^ @ < r f f f f f t 6 0 6 r f f f r 8 r h h p h p h p ",
"2 2 2 2 , & X 2 w g g g g w w g f f f f f f f f f f f f f f f f p f f t 8 r @ 2 r f g p f f f t 5 t f f f f f r p h p h p h p h ",
"2 2 2 2 , & X 2 w g w g g g g g f f f f f f f f f f f f f f f f p f f p n ~ @ < r g p g f f f t 6 r f f f f f f h p h p h p h p ",
"2 2 2 2 , & . , 0 g g g g g g g f f f f f f f f f f f f h f f f f f f f C ) = < t g g p g p r 6 t p f f f f f f f f f f p h p h ",
"2 2 2 2 , O . & 2 0 w w g g g g f f f f f f f f f f f t t f f f f f f f C ) @ , 2 t p g y p t 6 r p f f f f f f f f f f h p h p ",
"2 2 2 2 2 & . . - 2 2 0 t t t t r r r r r r r r r r 0 ; ; q r r r r r r c R @ o - 2 t r r t 5 0 r r r r r r r r r r r r r r r r ",
"2 2 2 , 2 , & . X O - 2 2 2 2 2 2 < < < < < < < < < &   . & , < < < < < 2 < X     @ , < < , - < < < < < < < < < < < < < < < < < ",
"6 6 6 6 5 6 5 : @ @ @ @ * + * * * * * * @ = o . @ @ @ @ @ @ @ * @ * * * * * @ + @ * * @ * @ @ : o . . X @ * * * * * * * * * * * ",
"o.} ( } } } } { / / { ) R a ~ / { ) ) ) X.-.3 @ K ) / / ^ { ) / { ) ) / ) ) _ { ~ ( ) { { ) X.-.3     @ K ) ` _ _ _ ( / { ~ ) ) ",
"V V C C C C C C C C N f 9 f N C C C C C D %.-.: 5 n C C C C C C C C C C C C N C C C C C N C D &.>.3 . . 5 n C N N C C C C C C C ",
"p p f p p p f p p r t 6 t f f f p p f f f F X.* < r f p p p f f p f p p p f f p p g p f p p p D <.>.> . < r f f h h p g p h p g ",
"p f f f f f f p t 6 6 t f f f f f f f f h C / * < r f f f f f f f f f f p f f f f f f f f f p M +.2.4 o < r f f g p g g g p r r ",
"f f f f f f r t 6 t r r f f f f f f f f p C / * < r f f f f f r f f f f f f f f f f f f f f f f D &.-.: < r f f p g p p r t 5 2 ",
"f f f f p t 6 6 q p f f f f f f f f f f f C ) * < r f f p f r 6 r f f f f f f f f f f f f f f f f D ..= < r f f p r t 2 2 2 - % ",
"f f f f t 6 q t 6 r f f f f f f f f f f f C ) * < r f f p p t 6 r f f f f f f f f f f f f f f f f C ) @ < r f f p 6 2 ; % - % % ",
"f f r t 6 t f r 6 t p f f f f f f f f f f C / * < r f f f r 6 t f f f f f f r p p f f f f f f f g C ) * 2 r f f p t 5 2 2 - % & ",
"p t 6 6 t p f f t 8 r p f f f f f f f f f C / * < r f f p t 6 r f f f f h r 8 t f f f f f f f f p C ) * < r f f p p r r t 5 2 2 ",
"t 6 t r f f f f f r f f f f f f f f f f h C / * < r f f r 6 t f f f f f h h t 6 t r f f f f f f g C ) * < r f f p f f f p p p r ",
"6 t p p f f f f f f f f f f f f f f f f f h T @ < r f f f r f f f f f f y g y r 6 6 t f f f f f p C ) = < r f f f f f f p p p c ",
"r f f f f f f f f f f f f f f f f f f f t 2 ; o < t p p p h f p f f f f f f y h r t 8 r g p f f g C T @ 2 t p p f f f f p h p h ",
"r r r p r r r r r r r r r r r r r r r t 2 - . . - 2 t t r r r r r r r r r r r p r t t r r r r r r q > o 2 q r r r r r r r r r r ",
"< < < < 2 < < < < < < < < < < < < < < < , +       % < < < < < < < < < < < < < < < < < < < < < < < , O   @ , < < < < < < < < < < ",
". . . . . . . X o @ = * @ + @ = * @ = & @ @ + @ @ @ @ * * * * @ * * * * = X X . X @ * * * * * * * * @ @ @ * * * * * * * * * * * ",
".     X         - K ^ ) R 7 Y ) ) { _ ) ) ) ( { ~ ) { ~ / ( { / ) ) ) ..-.4 X   > R ( / ` ` _ _ / / / / ( { / / / ) / ( { / / { ",
"; : : - + .   X - 7 n C n t 9 n N N N N C C C C C C C C C C C C C C C D &.-.& @ 0 N C C N N N S V V C C C C C V C C C C N N N N ",
"} ( / g 2 &   O 2 q g g f r 5 t f f f f g p h p f f f f f f f f p f f f D ..* < r p p h h h g y h p g p h p h p p p h f f f p p ",
"C V I ( r - o < t c g g f f q 6 r f f f p g p h f f f f f f f f f f f f C ) * < p y h p h p g y p h p g p h p h p h p f r r f f ",
"g g f D / ; . < r f f f f f t 6 r f f f g h g y f f p p r f f f f f f f N / * < r y g g y g g g h p h p h p h p f f f r 6 6 t p ",
"g g f n / 1 o < r f f f f r 6 0 f f f f y y g g f f p t 6 r f f f f f f N { * < r p h y p p y g p h p h p h p h f f f f r t 6 t ",
"g g u p C R @ < r f p f p p q 9 r f h y h g y g f f r 6 t f f f f f f f S ~ * < r f h f p p g p h p h p h p h p f f f f f f t 6 ",
"u g c p C ) : < r f p r p t 6 q a f f y n y g g f f t 6 r f f f f f f f N _ * < r f f r 6 r p g p h p h p h p h f f f f f p p r ",
"h p h p C ) * < r f r 8 0 2 2 t 8 y y g g g g y y a 8 r g g g y f f f f C ( * < r w g t 6 t p p h y y g y g g g f f f f f f f f ",
"p h p h C ) * < r f f t 6 - - 2 0 y y g y g g y f y r y y y g g f f f f C / * < r g w 6 0 6 t g g g h g g g y y f f f f f f f f ",
"h p h p C / * < r f f p q 2 - - 5 y g g g g g g f f h g g g y g f f f f N { * < t r t 6 r t 6 w y h g y g y g g f f f f f f f f ",
"p h p g C ( * < r f f r 9 0 2 - < t g g g y y g f f y g h y g g f f f f C ) @ O < 5 5 t p g w p y g g y g g g g f f f f f f f f ",
"h p h p D ) * < r g g p r g 0 6 0 6 y y y g g g f f f f y g g y f h h y C { @   * 2 t p g y g g h y g y g g g y y g g g f f f f ",
"r r r r h R @ < t r r r t q 6 0 y y t y r r r y r r r r y y r r r r r y p R +   o < t r t y t t a r r r y y y t r r r y r r r r ",
"< < < < < < o & 2 < < < 2 ; , 2 < < < < < < < < < < < < < < < < < < < < 2 < .   . * < < < < < 5 < < < < < < < < < < < < < < < < ",
"X X X X . .     . . . . X   X   X X X . . X X X X X X X X X X X X X X X X .       . . X . . X X X X X X . X . X X X X X X X X . "
};
