/* XPM */
static char *b47bea7095d0412aade94697fa4793a7lBEuTHrysCzeRBtd[] = {
/* columns rows colors chars-per-pixel */
"64 64 155 2 ",
"   c #2A1E14",
".  c #2E2216",
"X  c #312417",
"o  c #3E2514",
"O  c #342619",
"+  c #37281B",
"@  c #3C2B1C",
"#  c #3F352A",
"$  c #432713",
"%  c #442814",
"&  c #4C2E16",
"*  c #422C1B",
"=  c #4A2F1A",
"-  c #4E3017",
";  c #4E321C",
":  c #513117",
">  c #51331B",
",  c #58371C",
"<  c #56381F",
"1  c #5D3B1E",
"2  c #603D1F",
"3  c #422F21",
"4  c #453121",
"5  c #4B3524",
"6  c #4F3826",
"7  c #4C3728",
"8  c #44382D",
"9  c #4B3C2E",
"0  c #523620",
"q  c #523A27",
"w  c #5C3D22",
"e  c #553C29",
"r  c #593F2A",
"t  c #473A30",
"y  c #483C34",
"u  c #483F38",
"i  c #603F23",
"p  c #5F4025",
"a  c #5C412C",
"s  c #4A433E",
"d  c #5B4432",
"f  c #624126",
"g  c #60452E",
"h  c #68472C",
"j  c #624732",
"k  c #654933",
"l  c #6A4D36",
"z  c #6C4F38",
"x  c #6F5139",
"c  c #705139",
"v  c #4A4642",
"b  c #4C4946",
"n  c #4E4B48",
"m  c #504740",
"M  c #544D47",
"N  c #584E46",
"B  c #514D4A",
"V  c #584F48",
"C  c #54514E",
"Z  c #59524C",
"A  c #565451",
"S  c #595653",
"D  c #5D5955",
"F  c #5E5C5A",
"G  c #635C56",
"H  c #615E5C",
"J  c #64615E",
"K  c #656566",
"L  c #6D6966",
"P  c #6E6C6A",
"I  c #706C69",
"U  c #716D6A",
"Y  c #706D6A",
"T  c #716E6B",
"R  c #726E6B",
"E  c #726F6C",
"W  c #716E6B",
"Q  c #73706C",
"!  c #707171",
"~  c #777371",
"^  c #777471",
"/  c #777573",
"(  c #737474",
")  c #747474",
"_  c gray46",
"`  c #767777",
"'  c #757575",
"]  c #787471",
"[  c #787573",
"{  c #7B7774",
"}  c #7B7875",
"|  c #7D7975",
" . c #7C7976",
".. c #7C7977",
"X. c #7D7977",
"o. c #7D7976",
"O. c #7D7A77",
"+. c #777878",
"@. c #7D7A78",
"#. c #7E7B78",
"$. c #7A7A7A",
"%. c #868280",
"&. c #848484",
"*. c gray58",
"=. c #959595",
"-. c gray59",
";. c #969797",
":. c #979797",
">. c #979898",
",. c #989898",
"<. c gray60",
"1. c #99999A",
"2. c #999A9A",
"3. c #9A9A9A",
"4. c #9A9A9B",
"5. c #9B9B9B",
"6. c #9B9B9C",
"7. c #9B9C9C",
"8. c gray61",
"9. c #9C9C9D",
"0. c #9D9D9D",
"q. c #9D9E9E",
"w. c gray62",
"e. c #9E9E9F",
"r. c #9E9F9F",
"t. c #9F9F9F",
"y. c #9D9D9D",
"u. c #9F9FA0",
"i. c #9FA0A0",
"p. c #9FA0A0",
"a. c #A0A0A0",
"s. c #A1A2A2",
"d. c #A2A2A2",
"f. c #A2A2A3",
"g. c gray64",
"h. c #A3A3A4",
"j. c #A3A4A4",
"k. c #A4A4A4",
"l. c #A4A5A5",
"z. c #A5A5A5",
"x. c #A5A6A6",
"c. c #A3A3A4",
"v. c #A7A7A8",
"b. c #A7A8A8",
"n. c gray66",
"m. c #ABAAA9",
"M. c #B2AEAC",
"N. c #B3AFAC",
"B. c #B3AFAD",
"V. c #B3AFAC",
"C. c #B4B0AD",
"Z. c #B4B0AD",
"A. c #B7B6B6",
"S. c #B7B4B3",
"D. c #BCBCBB",
/* pixels */
"5.5.*.-.-.:.-.-.*.-.>.>.>.5.5.7.0.0.7.7.6.5.5.5.0.0.a.0.q.q.7.7.5.>.5.5.5.0.q.d.a.q.q.0.5.5.5.5.7.7.0.0.t.t.a.g.g.g.g.g.x.x.g.L ",
"0.&.^ ~ ~ ^ ^ [ { } } } } @.....#.#.@.....} ......@.#.#.@.#.#.} } @.............#.#.#.#.} #.$.@.} @.#.} #.#.| #.} #...#.} %.A.! ",
"5.Y q 0 * 5 7 y d d d d d d d d d d d d d d d d d d d d d d d d d d d d d d d d d d d d d a d d d d d d d d d d d d f p 0 j M.! ",
"5.Y ; & $ = 6 r a g j a e a g g a g g g a j g g j a g g g g g g d g g g g g g g g g g a a a a a a a a a d a a d a g f 1 > a M.( ",
"0.Y > - % ; a j x z x r q k x x c x x x x x x c x x x x x x x x x x x x x x x x x x x a a a a x x j k j j j k x c c f 1 : g C.` ",
"k.Y > & % * r d z z z a e k z z l z z l x x x l x x c x x x x x x x x x x x x x x x l a e q e k k k k k k k x x c c f 1 : a C.` ",
"k.Q 0 & % = 6 a j j k j j j j j k j j j k x l j l x x x x x c x x x x x x x x x x d a 7 6 = 4 a j x x x c x x x c c f 2 : a C._ ",
"k.Q 5 & % * 5 e j a a j a g d a a g d a g j g a g h h h h h h h h h h h h h h l z d a a q 5 5 e a k k k k k k k k k f 2 : a C.' ",
"l.Q ; & % = 5 q r a a r a e a a r a r a r a a a w 2 2 2 2 2 2 2 1 2 2 2 2 2 2 f j j j d a 6 6 a a a a a a a a a a a w 1 : f Z.` ",
"l.P 6 & % % 4 7 a r r a r a r a a r a r p w w p w , , , , , , , , , , , < , , 1 f f f a a q q a a a a a 6 a a a a p p 1 : a C.( ",
"d.I < & % * 5 6 r a r a a a a e a a a a r 2 2 2 , - : > > : > > - > : : > : - > 2 2 f r a a a a 6 a a a a a a a a a 1 1 : a C.( ",
"d.I ; & % % * 5 q q q q q q q q q q q f 1 > > , - % % % & % % % % % & % % & % - , > > 1 w 5 5 7 5 4 5 5 5 = 5 7 7 6 w 1 : a C.( ",
"g.Y > - % % @ 5 6 6 6 6 6 5 6 6 6 6 q 2 1 > - & & % % % o % % $ % % % % % * o & : : : , 1 5 4 4 # 5 4 4 4 4 4 4 6 6 w 1 : f C.' ",
"k.Y ; - % @ @ @ 5 4 4 4 # * # * 3 w , > > % % % 5 u u u u y * $ o 4 M Z V s s 5 & % % > , , 0 = * * 4 * 4 * 4 4 4 4 w 2 : g C.' ",
"b.Y 5 - % % O @ 4 4 * @ @ @ @ @ * 1 , > & * @ * # b b b b v = % o 4 J H J C b 8 % * * & - 1 1 5 5 * # * # * * 4 * 4 , 1 : a C.' ",
"b.Q > & % o . O @ + @ @ @ @ @ , 1 > & % = s v v b v b v v v ; - $ 6 F S n v b v s s s 4 % > > 1 0 @ @ @ @ @ @ @ @ @ < 2 : a C.( ",
"n.E 5 - % % X + @ @ * # @ @ * 1 1 > & * 4 b b b b v b b b v ; - % 7 F A b v b v b b b 5 = - : 2 < @ @ @ @ @ @ @ # @ , 2 : g C.^ ",
"n.Y > & % % 4 7 e a a q e e r 2 1 & 5 s v n b b b b b b S S 0 - % 5 n n b b b b b b b v s > : : < a a a a a a q e e 1 1 : a C.' ",
"n.Q 5 & % * 5 e a a g g g a p 1 , % 4 n n n b n n n M Z F G 0 - % 4 n n b b n n b b n C M w : : - a a a a a a a a a f 1 : a C.( ",
"n.Q > - % ; a a g l x x x f 1 : - % 5 n B B n n B n G K K G 0 - % 4 B B n n B B n n B D G r 2 : & % * a j j k j k g f 1 : a C.( ",
"n.Y > & % = a d k l c x c f 2 : : $ 3 B B B n B C C H J K G 0 - % 4 B n n n n B n C A J J f 2 : & o = a d l k k k k f 1 : g C.^ ",
"n.E 0 & % = d j c c c x c f 2 > & $ 5 B n B n n S J J J J G 0 - % 5 v n n n n v n F J J G f 2 : - % @ a d x x x c c f 1 : g M.' ",
"n.Q 5 & $ = 6 a k k k k k f 1 : : % 4 n n n B S D J J J D Z 0 - % 3 n n n v n C D J K J G f 2 : & % & 7 a l k k k k f 1 > a M.( ",
"b.E ; & $ = 4 6 r a r r a w 2 : & % 4 n n b S J J H J J C s > - % 5 b b n n v Z J J J J J f 2 > & o * * a d a a a a p 1 : a C.^ ",
"b.Y 0 & $ % 4 5 e e e e e w 1 > : % 5 v n S F J J J S S B v > - % 5 b b b C S D H K H S Z a 1 : & % % 4 7 a a a r a w 1 : a C.` ",
"b.Y ; & $ * @ 5 5 q 5 q 6 1 1 > & % 3 n B K H H H H C b n v > > % 3 b b b S J J H K H C v p 2 > & $ * @ 7 a a a p r w 1 : f C._ ",
"n.Y 0 & % % @ 4 6 6 q 6 5 w 2 : & % 5 D F H H H S B n b n s > : % 4 v C D H H H H A C b m p 1 : & % % @ 4 q q q q q w 1 : g C.( ",
"n.Y 5 & % * 3 5 6 6 6 6 q w 1 > > % 6 H H H H F A b b b n v ; - % 5 m C H H H H F B b b m p 1 > & % * O 4 6 6 6 6 6 w 1 : a C.( ",
"n.E 5 & % % @ @ 5 4 4 4 5 w 1 : & % 6 F H H A C n b b v b v 5 : $ 7 S F H H H S n n b v s i 2 > & % o X @ 5 4 4 4 5 w 2 : g N.^ ",
"m.E 0 & % % O @ 4 3 4 4 * < 1 > : % 5 H F F C v b b v v v v ; - % 7 F H H F F C v b b b v w 2 : & % o X + = 4 4 4 * < 1 : a N._ ",
"m.E 0 & $ o X O @ @ @ @ @ < 1 > & % 5 H D b b v v v v v b v * - % 6 F H F A n b b v v b v f 1 > = % o   O @ @ @ @ @ < 1 : g N.' ",
"n.E > & % o X + @ @ @ 3 @ w 1 > : $ 5 D A v v v v v v v v v ; - % 7 D S D n v v s v s s s i 1 > = $ o . O @ @ # @ @ , 2 : a M.( ",
"m.Q ; & % * = 7 e r e r e 1 2 > - % $ % 4 0 > > > 0 > > > 0 - - & > 0 0 0 > > 5 > 0 ; > 0 w 2 : & $ % @ 5 e e e r e w 1 : g M.~ ",
"m.Q ; & % * 5 q a a a a a i 2 : - % $ $ $ & = & & & & & & & & & & & & & & & & & & & & & & 1 2 > & $ * 3 q g g g j g i 2 : g N.( ",
"m.Q 6 & % = 9 a j j k j j f 1 > - % $ o $ $ $ $ % $ * $ $ $ % % % % % % % % $ % $ $ % $ % 1 1 > & % = q j c z c z z f 2 : g N.( ",
"n.! ; - % % q d k l k k k f 2 : - % * 3 3 4 4 5 3 5 7 7 7 q % % $ * 5 3 4 4 5 4 5 3 5 7 q i 1 > & % * 5 d z z c c c f 2 : a N.) ",
"m.Q 5 & % ; r j c c x x x f 1 > - % 5 n n n M n B n G J K G = $ o 3 n n M M n n B B n F G i 2 > & % * 3 r j l c c c i 1 : a V.) ",
"m.Q > & % = 7 a k k k k j f 2 : - % 5 n n B n n C S H J H G 4 & $ 4 n n n n n n b A S G G i 2 : & % $ 3 6 j j k k k i 1 : g V.) ",
"m.E 0 - % % = q r a r a a 1 2 : & $ 4 b b b b b A J J J H G 0 - $ 4 b n b n m n b F K J G i 2 : & % $ O 5 r r r r r w 2 : g V.) ",
"m.Q ; & % * 4 q a r a r a i 1 > : $ 4 b b b C S D J J H D V 0 - $ 4 b n b b b C S G H J G f 2 > & % * @ 5 r r r q q w 1 : g V.) ",
"m.Q 5 & % % 5 q a a r a a w 2 : & % 4 b b b A J H H H H C b > & % 4 m n b b n S J J H J G i w > & % % @ 7 a a a 5 4 < 1 : a C.^ ",
"b.! ; & % % @ 5 q q q q q w 1 > : % 4 b B S G H H H A C b v > : % 4 b b b A S F H H H A M i 1 - = % % @ 4 q 6 q 5 4 w 1 : g N._ ",
"k.Y 0 & % % * 5 6 6 6 q 5 w 1 > - % 5 b C H J H H H B b b v ; & $ 4 b b n A H H H H H C m i 2 > & % @ @ * 6 6 7 4 4 w 1 : g N.' ",
"l.P 0 & % % O # 4 5 4 4 5 , 1 > - % 7 S D H H H A C b b b v 5 : % 4 b n S F H H F A B n v w 2 : & % o O @ 5 5 4 4 4 < 1 : a M.( ",
"d.P > & $ o O @ 4 3 4 3 4 0 2 > - $ 7 H H H F F C b b v v v > : $ 5 b C F F H F F B v b v w 1 : & % o . @ * 4 * 3 4 , 2 : g M.~ ",
"d.P 0 & % o X O @ @ @ @ * = : - & $ 7 F F F A b v b v v v v 0 & $ 7 D D H F H A b n v b b w i : & % o   O @ @ @ @ @ < 1 : g N.( ",
"i.P 0 & % o X + @ @ @ @ * = - : > % 7 G G F C b v v v v v s > - & 5 G G F G G C v b v v u i i : - % o . + @ @ @ @ @ , 2 > g N.( ",
"0.L > & % * 4 6 r e r w w 1 1 2 2 i w i w i w w w i i i w i w 2 w i i i r i w w e w i w i i 2 2 w 1 1 1 r e r r e r w 1 : a N._ ",
"0.L > & % % 6 q a a a r 1 , 1 1 , 1 1 , 1 , 1 1 , 1 1 1 1 1 1 1 1 1 1 1 , 1 1 1 1 1 , 1 , 1 1 1 1 1 1 , q e g g g j i i : j V.` ",
"0.L > = % = a a a j x w : : : : - - > : : > : > : : : : : - - : - - - : - : : : : : : - : - ; ; : > : : 0 q j z c z i 2 : i Z.` ",
"5.L 0 & % = e e q a k < & & & & & & - - & & & : & & & & & & & & & & & & & - & & - & - & - - - - & & & & 5 5 d z l l i 2 : r Z.` ",
"7.L 0 & % * 5 4 4 7 6 = % % % % % % % % % % % % % % % % % $ $ $ % $ % % % % $ $ % % % % $ % % % % % % % * 5 e j j j i i : j Z.` ",
"7.L 0 & % = 4 5 5 q e 3 * * * * * * * = * * * @ * * * * * $ * * * * * $ * * * @ o * * * * * * * * * * * * 3 6 d g a i 1 : g V.` ",
"7.L > & % % 5 5 q e r 5 @ * @ * @ @ * @ @ * @ @ @ * 3 3 3 @ 3 3 3 * 3 3 3 @ * @ O @ @ * @ @ @ * * * @ 3 * 3 6 r r r i 1 : g V.` ",
"0.L > = % % 4 6 e e r 5 4 5 5 5 4 5 5 5 5 5 # ; 5 q 5 q 5 5 q 6 7 q 5 5 5 5 5 5 4 5 6 6 4 5 ; # 4 5 4 5 4 4 6 e e e w 1 : g V.` ",
"i.L 0 & % * 4 q r r a q 6 r r q 6 6 5 6 6 6 a a r r r r r r r r r r r r a a a a a a a a a a a a 7 q q 5 6 6 q 6 5 q w 2 : j V.` ",
"i.P < % $ * * 5 e q q q 6 q q 6 a 4 a 6 6 6 a 4 7 5 5 5 5 5 7 4 5 5 5 5 5 q q q a ; a a 5 a a 4 6 6 6 6 6 6 6 6 q q w 1 : g V.{ ",
"g.P ; - % * @ 5 q 5 q 7 6 6 6 6 4 a # 5 6 6 5 a 5 4 4 4 4 4 = 4 4 4 4 4 4 5 5 q # a 4 5 5 4 4 a 6 6 6 6 6 6 6 6 q 5 w 1 : a C.` ",
"g.P ; - $ % @ @ 5 5 4 4 4 4 4 4 5 ; 4 5 * 4 a 4 * 4 4 4 4 4 4 4 3 4 3 4 3 5 5 4 a @ * ; 4 ; 4 5 5 4 5 4 4 4 4 5 4 5 w 1 : g N.` ",
"l.P < - % o O @ 3 3 * 4 4 4 4 4 * * # @ * 4 @ @ 4 4 4 * * # 4 4 3 4 4 3 3 4 3 * 4 * 4 * # @ * 4 4 * 4 4 * 4 4 * 3 3 , 1 : d N.` ",
"x.Q > - o o . X @ @ + @ @ O @ @ X + + + + O + @ @ @ @ + @ @ @ O @ @ @ @ @ @ @ @ @ @ + + @ + + X @ @ + @ @ @ @ O @ @ , 2 : a N.` ",
"n.#.d a a 6 # 8 9 9 9 s 9 9 9 9 a s a 8 a 8 a s s 8 a 7 9 y 9 9 9 9 9 y 9 9 9 8 # a s 8 a 8 s a s 8 # a y y 9 9 9 9 j k a x S.` ",
"m.D.Z.C.m.m.m.m.m.m.M.m.m.M.m.m.m.m.m.m.x.b.m.m.m.m.x.b.m.m.m.m.n.m.m.n.m.n.m.m.m.m.m.m.l.b.m.m.m.m.b.m.m.m.m.n.n.m.m.M.M.m.A._ ",
"$.$.&.@.$.$.#.#.$.$.$.$.$.$.$.@.$.+.$.+.+.+.$.+.$.+.+.$.+.$...+.....$.$...+.....$.+.$.+.$.$.$.$.$.$.$.$...$...+.....` ` ...._ K "
};
