/* XPM */
static char *result[] = {
/* columns rows colors chars-per-pixel */
"64 64 100 2 ",
"   c #391E00",
".  c #3D2302",
"X  c #412605",
"o  c #432906",
"O  c #452B09",
"+  c #492E0C",
"@  c #4B310E",
"#  c #4D3311",
"$  c #513614",
"%  c #523816",
"&  c #553C1A",
"*  c #593F1D",
"=  c #5B411E",
"-  c #5D4321",
";  c #5B4F3D",
":  c #5E513F",
">  c #614724",
",  c #654B25",
"<  c #694E26",
"1  c #664D2A",
"2  c #694F28",
"3  c #6B5027",
"4  c #6D532B",
"5  c #70562E",
"6  c #72582F",
"7  c #605037",
"8  c #6E5530",
"9  c #65543B",
"0  c #6D5B3E",
"q  c #715730",
"w  c #745A32",
"e  c #795E36",
"r  c #735E3C",
"t  c #7C623A",
"y  c #594F40",
"u  c #766447",
"i  c #7A6547",
"p  c #76654B",
"a  c #7B6749",
"s  c #726653",
"d  c #7D6C51",
"f  c #796C58",
"g  c #676769",
"h  c #676869",
"j  c #68696A",
"k  c #80653D",
"l  c #81683F",
"z  c #846A46",
"x  c #866E4A",
"c  c #896F48",
"v  c #8D734C",
"b  c #90764E",
"n  c #92784F",
"m  c #877355",
"M  c #8A7350",
"N  c #8A775D",
"B  c #927750",
"V  c #957B53",
"C  c #997E56",
"Z  c #947D59",
"A  c #997F58",
"S  c #857762",
"D  c #867965",
"F  c #8F7D63",
"G  c #8C7E69",
"H  c #9A8057",
"J  c #9D835B",
"K  c #A1865E",
"L  c #A2885F",
"P  c #8F816C",
"I  c #978261",
"U  c #9B8563",
"Y  c #94836C",
"T  c #99876D",
"R  c #8D8170",
"E  c #A18760",
"W  c #A48A63",
"Q  c #A88E66",
"!  c #A38C69",
"~  c #A98F68",
"^  c #AA9067",
"/  c #AC926B",
"(  c #B0966E",
")  c #B2986F",
"_  c #AB9573",
"`  c #B19770",
"'  c #B49A73",
"]  c #B99E76",
"[  c #B69D79",
"{  c #B99F79",
"}  c #BAA077",
"|  c #BCA27B",
" . c #C0A67E",
".. c #848585",
"X. c #8A8A8B",
"o. c #C1A781",
"O. c #C4AA83",
"+. c #C9AF86",
"@. c #C9AF88",
"#. c #CBB18A",
/* pixels */
"O % # # # + @ @ # # $ $ $ $ % % $ % % % % % % $ # % % @ @ @ # @ $ @ O O + + + O @ @ O @ @ @ @ @ # @ @ # @ @ @ + @ @ @ @ @ + O o ",
"1 A A A V M b b b v b v b v n n v v b v b n v n n n B n V V V v n n n n n n n n v v b b n n V H J J J J A A H H C C V A V V C , ",
"4 [ W I U ~ ( ` ` ' ' ' ' ` ' ] ] | { | } | | | | | ] ' | | | | | | | | ] ] ' ' ] ] | { | | ] ` / / / ) / _ / / / ( ( Q T ! ' 4 ",
"1 / R ..s J / Q E K K K J H H J J J J K A A J J K J J J J E E Q L K K J K K L Q E W W Q W L H E ^ W E L E E E J J J A G ..s v = ",
"- U D h y m W U W E Q ~ / ( ( / ~ E E E E Q ^ / ^ ^ / W J J K E ~ W W W E J J J J J H J J J A V H H H J L E W Q Q / Q G j : V > ",
"> ' I p p U / / / ~ ~ Q E E E E W E E Q W Q E E L K E Q E Q ^ E E ! W Q Q E Q / / / / ( ) ` ' ' ` / / / / / / Q E E E Z u i H > ",
"> ( Q W ! ~ / / ~ Q / / / / Q Q / / Q W Q Q E Q ^ Q Q Q E Q / W K J H J J A H J J H A J H A A A L Q W W Q Q W E E K W E J K J - ",
"= K A V V V B B V C B C H H J J E E Q / / / / / / ( / / / / ^ W Q / Q Q Q ~ ~ E E E K E E E W E E J J H H J H J J J L J J J Z * ",
", _ / ` ' ` ` ` / ` / / / / / Q ! L K E Q Q Q E E L J L J J L E E W K J K K K L K K E E E W E E ! E E Q E E E L W Q J E E E E - ",
"- / W W E E K H J E J J E J E E E E L J J J J J E J L W Q W Q E E E Q W W E W ~ / Q Q E E E E K J J J J E E Q E U E E Q W ~ E - ",
"> / I Z J ~ / / / / / / / / Q E Q W E Q Q E Q W E W E W Q E W W E Q Q Q W W E W W Q Q E E Q ^ ^ / / ~ Q / ~ / E E Q E K H J K - ",
"= H G X.f J ~ / Q W ~ / ( / / / / ` / / ~ Q E Q ^ / E L W ! W E W Q E E J K K K J J J J J J K J J J E W E Q E Q ^ / W U ..d H - ",
"1 ( G h y Z / ~ Q Q E E E E E K J J J E E K H J K Q Q W W E Q W Q / / Q Q / ' ) ` / ^ / / / Q / / ^ ^ ^ K K E Q Q / / I h 9 A > ",
"= b z 0 r x v v v n A V B A V V A V B B B V V C B v v v v v v c c c b c c c c c v v v v b V b b B V B C V V C B v v v i 4 q v - ",
"% 6 3 3 8 q w q 4 5 4 4 < 3 3 3 , < 4 3 2 < 4 4 4 4 4 4 4 q w 4 4 4 5 5 6 6 5 6 4 < 4 3 < < , < 3 3 1 < < < , < < 4 4 4 4 3 4 % ",
". . . . .   .     . . . . X o O o o . o O O + + + # # # @ @ @ # $ $ % $ @ + + + O X X O + o o X o o . . . . . . X X . . . . . . ",
"@ @ @ @ O # O @ @ O O o o o o o o o . . . . .   .   . . .       . o o o o O O @ + + + O O + @ @ O O o O O O O o o o O O @ O O O ",
"J J J H H H J J J H H H H J V C H H A C H J H H H J J J C A E > - J J H H H H L J J A A A J H H J H H A H J H n B C C C A H H J ",
"+.O.+.+.+.O.| o.o.O.O.O.O.O.o.o.O. .|  .| | | | ] { | [ _ ` #.2 8 @.[ _ [ O.O.| o.O. .| |  .O.O.O. .O.o.O.+.@.#.#.#.#.+.@.@.O.#.",
"W E J E Q Q Q E Q E ! Q Q Q Q ~ / ` ( / Q ~ ~ / / / E Y ..s A & - ~ P ..s J ~ E E K E J H A H J K J J U J H K E E Q Q ~ / / / / ",
"~ ~ ^ W E Q Q E W L L J U J H H W J K Q W E L E U K A S h ; v & % J D j : M E E E E E E E E E J W E E / Q Q E W Q E Q Q Q ~ / / ",
"/ / / ~ Q E W Q E Q L H K E H C C B V A Z A H H H J K V u i J & - | U p p W / / / / ^ / Q Q Q Q / / ^ / ^ Q ~ ~ ~ Q ^ / / / E / ",
"J J H J E Q E J E E E W Q Q / ~ / / / ` / ( [ / ` ] ` ` _ / ( - % J V C C C H J J J E E L J J J K L E E J H J J E K J H J J E J ",
"/ / / / / / / / / / / / / / / ~ Q E E K J K J H J K H A A A V # - ( E Q W E E E E E J J E Q Q E E E W W Q ^ Q Q / / ^ Q Q Q Q / ",
"C V C V V A V A H J J J J E E E W ~ Q E E E L K J K K E W E E & = ` / / / ( ` / / / / / / ~ / / / ^ Q E W Q W E E E K J J H C A ",
"W W W W E Q Q E E E W W Q Q Q E W ~ ~ ~ Q / ^ Q Q E K J J J K & & W J K J J J J K J E Q Q E E E E K K E E E E E E E K J K L E E ",
"/ / Q W Q Q E E K L E E E E Q E J L J U J K E E E U K J A C J % - ' L U J W Q W E E E E J W E E E E K E W E J K Q / Q ! W Q ~ Q ",
"J J H A A J K J L K J L E K L L E E E Q E E / Q / / Q U ..d K * = Q U X.d A W Q / / / / / / / / / / / / / ` / Q E E W E J J J A ",
"E E E W E J J E E E L L J J K L Q Q Q Q / / / Q Q ~ E F h 9 A * & L N j 7 B E J J J J J J J J K E Q E W E W / / / Q ~ / / / ~ Q ",
"A C V C V C V C C B n b b b v v v v v v v v v B V V C v r w v & > W v r e V J A A H E K E E K E E W W W E J J J J J A A J H H J ",
"< 3 4 4 4 w w e e t t t t t t k z t k t t t e w w w w e e e t % + 5 2 4 q 4 5 5 6 5 5 4 5 w w 4 6 6 w 5 w w 5 5 4 w 5 4 2 8 q 4 ",
"o X O o o o . . . X X . . X . o o . X o . o O O O O O + + + + . . O O O + O o O O O O O o O @ @ O O @ o O + + O O O O o O O o O ",
"O # @ @ + + + @ # # # # $ # # % # $ % $ $ # # # # # # @ O + + # + + O O O O O O O O O @ @ + + + + @ + @ + + + O + + O + + O o X ",
"1 A A J A B b b v b B B b b V V M n v v n V b V B V B n H C V v n V n B V V n b b b n b B V A J J J J J A A J H A A A A A A A 1 ",
"8 ' ! Y U ~ ( ` ` ` ' ' ` ' ' { } ] | } | | | | | | ] [ | } | }  .{ { ] ] ] ] ] ] { | { { | ] ( / / / ` / ( / ( / ( / ~ T ! ' 4 ",
"1 _ G ..s J / ~ E E K J J A H J J J J J C C J J J J J J J E Q E L K K K K K L W E E W W E E J L Q Q E E K K K K K J H G ..s v = ",
"- E D j y m W E E W Q / / ( ( / ^ W E W W W ~ / / Q ^ Q J J K Q Q Q W W E J J J J H A K K J V V A H H J L E E Q Q / Q G g : V - ",
"> ' I p p U / / / ~ / E E K E K W E E E W W W E L L E Q E Q Q E W W W ! W W W / ( / / ( ( ' ' ' ( / / / / / / ^ E E E Z i i J > ",
"> ( ! W W ~ / / ~ Q / / ( ^ Q ~ / / ^ Q W Q E Q / ~ Q W E Q ^ W K A J J J C A J J A A J A A V A K W W E Q Q E E E J Q E H U J - ",
"* K A V V B B V V C b A A A J J E E Q / / / / / / ) / / / / ^ W ~ ~ Q ~ W ~ Q W E E K E E E W K L K J J J J H J J K J K J J C * ",
", ` / [ ` ' ' ( ` ` / / / / Q Q W E K E Q Q Q E W E E E J L K L W W K K K K K K K K E W W W W E W L E W W E E E W Q J E E E E - ",
"- / W E K J K H J J K K J J W E E W E J J J J J E J K E Q Q Q W W E E W W W W Q ~ ~ W W L L K K L U J J E E Q E K U E W Q ~ E - ",
"> ^ J Z J ~ / / / / / / / ~ Q L Q E E Q W Q W W E E W E E E E E W W ~ W Q W W Q W ~ W W E Q Q ~ / ^ / Q / Q ~ E E E Q E H J K - ",
"= A P X.f J / / Q E ~ / ` ( / / / ) / / ~ Q E Q ~ ~ W E W ! Q W W W E W A K K A K A A K H K K K J J E E W W W Q / / L U ..d A - ",
"2 ` G h ; Z / ! ^ Q E L E E E J J J J E E K J J E Q Q W E E Q E ~ / / Q Q ( ' ) ( ( W / ^ ( ~ ~ / ^ / Q K K E Q Q / / I h 9 A > ",
"= b a 0 0 x v v M B A V B C C V H C B B B V V V V v v v v v v c c c b c z c c c v c b b b n n n B V B C V V C B B v v i 4 q v = ",
"% 5 3 3 8 w w 4 8 4 4 4 2 2 3 3 < < 4 3 2 < 5 4 3 4 4 4 6 6 5 5 5 3 6 5 6 5 6 6 5 2 2 4 2 < , < < < < < < < , < < < 4 4 3 4 4 % ",
". X . . .   . . . . . . . . O O o . . o o O + + O # # # # @ @ # $ $ % $ @ @ + + o X X O O O X X o o . . . . . . X o . . . . . . ",
"+ @ + + + + + + + O o o o o o o o o X . . . .   . . . . .       . o o o o o O @ + + + O O + @ @ O O o O O O o o o o O + + O O O ",
"J J J J A J J J J K H J J H V A H J A V H H J A H H J J H V K > - J H J J H H L J J A A A J H H J H H H J J H n B V C A A H H H ",
"+.O.O.+.+.O. .o. .O.O.O.O.O. .O.O. . . .| | | | ] | | [ _ [ @.1 8 #.[ _ [ O.O.|  . . .| |  .O.O.O.O.O.o.O.+.@.#.#.#.#.+.@.O.+.#.",
"W E K E Q ~ W E E W Q E Q Q Q Q / ` ( / Q Q ~ / / / E P ..s Z * - Q Y ..s Z Q E E L K J J A H J J J J U J H K E W W Q / / / / / ",
"~ / ^ E E Q Q W E E J J J K H J E K K E W E E W J K A S h ; M % % J D j : v E L E E E W E E E J W W E / Q Q E W Q W Q ^ ~ ~ / / ",
"/ / ~ Q Q Q Q E Q W E J J L H A V V V A Z A A H A J K Z u i J & - | U p p U ` / / / Q / Q Q Q Q / ~ Q / ^ Q ~ ~ Q W / / / / E / ",
"K K H K K Q E J J E E Q W W Q / / ( / ( / ( ' ` ' { ` ` / / ` - % J V C C C H J J J E E K J J J K E E E J H J J E J H H J J E J ",
"/ / ~ ~ / / / / / / ` / / / ~ ~ Q E E K K J J H H J H H J A V # - ( E Q Q E E E E E J J W W Q E E E W Q Q Q Q Q / / / Q Q Q ^ / ",
"V V C A V C A C J H H J J K L E Q ~ W W E E J E K K W W E W W & = ` / / ( / ( / / / / / / ^ / / / Q Q Q W Q W E E E K K J H A A ",
"E Q E E L ^ Q E E Q W Q Q Q Q W W ~ ~ ~ Q / ~ Q E K K J K J K % & W J K J J J J J L W W Q E E K E K J E W E K E E E U H K L E E ",
"^ / W W W Q L K U E E L E E Q E J E J J H J W E W K E A A V J % - ' L U J W ~ Q E E E E J ! L L E E K E E E J L Q / Q Q W Q ~ Q ",
"J K J A A J K J L J J L E E K L E E Q W E Q Q Q ~ / ! T ..x K * = Q U X.d A W W / / / / / / / / ^ / / / / ` / W E E W E J J J A ",
"L K K E E K K K E E K K U J L L E Q Q Q / / / ~ ~ ~ W F j 9 V * & L N h 7 b W J J J J J E H J K E Q E E E Q / / / ~ / / / / ~ Q ",
"A A V A n C C V C B b n n b v v v b v v v v v B V V A c w r b & - W v e e Z J A H J K K E E L E Q E E Q E J J J J J H A J A J J ",
"< < 4 4 4 5 6 6 w t t t t e t t k t t t e e e 6 w q 5 e e w e % + 5 2 4 4 4 2 5 4 4 4 4 4 w 6 5 5 5 w 4 5 q q 4 4 4 4 4 3 4 4 4 ",
"O o + O O O O X X X O X X o o o + o o + o O + @ @ @ + + @ # # o X O + + @ + O + + @ O + O + @ @ @ @ @ + @ # @ + + @ + O O O O O "
};
